<?xml version="1.0" encoding="UTF-8" standalone="no"?>
<!-- Created with Inkscape (http://www.inkscape.org/) -->

<svg
   version="1.1"
   id="svg3413"
   width="500.00003"
   height="200"
   viewBox="0 0 500.00003 200"
   xml:space="preserve"
   xmlns="http://www.w3.org/2000/svg"
   xmlns:svg="http://www.w3.org/2000/svg"><defs
     id="defs3417"><linearGradient
       x1="0"
       y1="0"
       x2="1"
       y2="0"
       gradientUnits="userSpaceOnUse"
       gradientTransform="matrix(75.394815,0,0,-75.394815,19.876305,128.36998)"
       spreadMethod="pad"
       id="linearGradient3545"><stop
         style="stop-opacity:1;stop-color:#0084d4"
         offset="0"
         id="stop3541" /><stop
         style="stop-opacity:1;stop-color:#004cb0"
         offset="1"
         id="stop3543" /></linearGradient><linearGradient
       x1="0"
       y1="0"
       x2="1"
       y2="0"
       gradientUnits="userSpaceOnUse"
       gradientTransform="matrix(72.438155,0,0,-72.438155,36.137932,111.36919)"
       spreadMethod="pad"
       id="linearGradient3565"><stop
         style="stop-opacity:1;stop-color:#004cb0"
         offset="0"
         id="stop3561" /><stop
         style="stop-opacity:1;stop-color:#0084d4"
         offset="1"
         id="stop3563" /></linearGradient><linearGradient
       x1="0"
       y1="0"
       x2="1"
       y2="0"
       gradientUnits="userSpaceOnUse"
       gradientTransform="matrix(28.088264,0,0,-28.088264,67.182856,177.89402)"
       spreadMethod="pad"
       id="linearGradient3585"><stop
         style="stop-opacity:1;stop-color:#17388a"
         offset="0"
         id="stop3581" /><stop
         style="stop-opacity:1;stop-color:#0071bc"
         offset="1"
         id="stop3583" /></linearGradient><linearGradient
       x1="0"
       y1="0"
       x2="1"
       y2="0"
       gradientUnits="userSpaceOnUse"
       gradientTransform="matrix(28.088264,0,0,-28.088264,36.137932,61.105976)"
       spreadMethod="pad"
       id="linearGradient3605"><stop
         style="stop-opacity:1;stop-color:#0071bc"
         offset="0"
         id="stop3601" /><stop
         style="stop-opacity:1;stop-color:#17388a"
         offset="1"
         id="stop3603" /></linearGradient><clipPath
       clipPathUnits="userSpaceOnUse"
       id="clipPath3619"><path
         d="M 0,480 H 640 V 0 H 0 Z"
         id="path3617" /></clipPath><clipPath
       clipPathUnits="userSpaceOnUse"
       id="clipPath3631"><path
         d="m 446,190 -20,-59 58,59 z"
         id="path3629" /></clipPath><linearGradient
       x1="0"
       y1="0"
       x2="1"
       y2="0"
       gradientUnits="userSpaceOnUse"
       gradientTransform="matrix(58,0,0,-58,426,160.5)"
       spreadMethod="pad"
       id="linearGradient3641"><stop
         style="stop-opacity:1;stop-color:#3fa6ff"
         offset="0"
         id="stop3637" /><stop
         style="stop-opacity:1;stop-color:#0071bc"
         offset="1"
         id="stop3639" /></linearGradient><clipPath
       clipPathUnits="userSpaceOnUse"
       id="clipPath3651"><path
         d="m 434,100 h 38 l 20,59 z"
         id="path3649" /></clipPath><linearGradient
       x1="0"
       y1="0"
       x2="1"
       y2="0"
       gradientUnits="userSpaceOnUse"
       gradientTransform="matrix(-58,0,0,58,492,129.5)"
       spreadMethod="pad"
       id="linearGradient3661"><stop
         style="stop-opacity:1;stop-color:#3fa6ff"
         offset="0"
         id="stop3657" /><stop
         style="stop-opacity:1;stop-color:#0071bc"
         offset="1"
         id="stop3659" /></linearGradient><clipPath
       clipPathUnits="userSpaceOnUse"
       id="clipPath3671"><path
         d="m 463,190 h 21 l -11,28 z"
         id="path3669" /></clipPath><linearGradient
       x1="0"
       y1="0"
       x2="1"
       y2="0"
       gradientUnits="userSpaceOnUse"
       gradientTransform="matrix(21,0,0,-21,463,204)"
       spreadMethod="pad"
       id="linearGradient3681"><stop
         style="stop-opacity:1;stop-color:#6aa9ff"
         offset="0"
         id="stop3677" /><stop
         style="stop-opacity:1;stop-color:#0071bc"
         offset="1"
         id="stop3679" /></linearGradient><clipPath
       clipPathUnits="userSpaceOnUse"
       id="clipPath3691"><path
         d="m 434,100 11,-28 10,28 z"
         id="path3689" /></clipPath><linearGradient
       x1="0"
       y1="0"
       x2="1"
       y2="0"
       gradientUnits="userSpaceOnUse"
       gradientTransform="matrix(21,0,0,-21,434,86)"
       spreadMethod="pad"
       id="linearGradient3701"><stop
         style="stop-opacity:1;stop-color:#0071bc"
         offset="0"
         id="stop3697" /><stop
         style="stop-opacity:1;stop-color:#6aa9ff"
         offset="1"
         id="stop3699" /></linearGradient><clipPath
       clipPathUnits="userSpaceOnUse"
       id="clipPath3931"><g
         id="g3935"
         transform="translate(-317.9673,-418.291)"><path
           d="M 0,480 H 640 V 0 H 0 Z"
           id="path3933" /></g></clipPath><clipPath
       clipPathUnits="userSpaceOnUse"
       id="clipPath3937"><g
         id="g3941"
         transform="translate(-302.7285,-423.8633)"><path
           d="M 0,480 H 640 V 0 H 0 Z"
           id="path3939" /></g></clipPath><clipPath
       clipPathUnits="userSpaceOnUse"
       id="clipPath3943"><g
         id="g3947"
         transform="translate(-366.4902,-351.8125)"><path
           d="M 0,480 H 640 V 0 H 0 Z"
           id="path3945" /></g></clipPath><clipPath
       clipPathUnits="userSpaceOnUse"
       id="clipPath3949"><g
         id="g3953"
         transform="translate(-381.8926,-346.7563)"><path
           d="M 0,480 H 640 V 0 H 0 Z"
           id="path3951" /></g></clipPath><clipPath
       clipPathUnits="userSpaceOnUse"
       id="clipPath3955"><g
         id="g3959"
         transform="translate(-279.915,-269.9912)"><path
           d="M 0,480 H 640 V 0 H 0 Z"
           id="path3957" /></g></clipPath><clipPath
       clipPathUnits="userSpaceOnUse"
       id="clipPath3961"><g
         id="g3965"
         transform="translate(-264.688,-229.5312)"><path
           d="M 0,480 H 640 V 0 H 0 Z"
           id="path3963" /></g></clipPath><clipPath
       clipPathUnits="userSpaceOnUse"
       id="clipPath3967"><g
         id="g3971"
         transform="translate(-234.5327,-269.9912)"><path
           d="M 0,480 H 640 V 0 H 0 Z"
           id="path3969" /></g></clipPath><clipPath
       clipPathUnits="userSpaceOnUse"
       id="clipPath3973"><g
         id="g3977"><path
           d="M 0,480 H 640 V 0 H 0 Z"
           id="path3975" /></g></clipPath><clipPath
       clipPathUnits="userSpaceOnUse"
       id="clipPath3979"><g
         id="g3983"
         transform="translate(-216.2505,-269.9912)"><path
           d="M 0,480 H 640 V 0 H 0 Z"
           id="path3981" /></g></clipPath><clipPath
       clipPathUnits="userSpaceOnUse"
       id="clipPath3985"><g
         id="g3989"
         transform="translate(-203.2808,-229.5312)"><path
           d="M 0,480 H 640 V 0 H 0 Z"
           id="path3987" /></g></clipPath><clipPath
       clipPathUnits="userSpaceOnUse"
       id="clipPath3991"><g
         id="g3995"
         transform="translate(-406.6123,-269.9912)"><path
           d="M 0,480 H 640 V 0 H 0 Z"
           id="path3993" /></g></clipPath><clipPath
       clipPathUnits="userSpaceOnUse"
       id="clipPath3997"><g
         id="g4001"
         transform="translate(-393.1084,-229.5312)"><path
           d="M 0,480 H 640 V 0 H 0 Z"
           id="path3999" /></g></clipPath><clipPath
       clipPathUnits="userSpaceOnUse"
       id="clipPath4003"><g
         id="g4007"
         transform="translate(-368.4482,-244.9453)"><path
           d="M 0,480 H 640 V 0 H 0 Z"
           id="path4005" /></g></clipPath><clipPath
       clipPathUnits="userSpaceOnUse"
       id="clipPath4009"><g
         id="g4013"
         transform="translate(-373.7881,-244.4453)"><path
           d="M 0,480 H 640 V 0 H 0 Z"
           id="path4011" /></g></clipPath><clipPath
       clipPathUnits="userSpaceOnUse"
       id="clipPath4015"><g
         id="g4019"
         transform="translate(-354.8252,-269.9912)"><path
           d="M 0,480 H 640 V 0 H 0 Z"
           id="path4017" /></g></clipPath><clipPath
       clipPathUnits="userSpaceOnUse"
       id="clipPath4021"><g
         id="g4025"
         transform="translate(-330.4072,-229.5312)"><path
           d="M 0,480 H 640 V 0 H 0 Z"
           id="path4023" /></g></clipPath><clipPath
       clipPathUnits="userSpaceOnUse"
       id="clipPath4027"><g
         id="g4031"
         transform="translate(-293,-250.5)"><path
           d="M 0,480 H 640 V 0 H 0 Z"
           id="path4029" /></g></clipPath><clipPath
       clipPathUnits="userSpaceOnUse"
       id="clipPath4033"><g
         id="g4037"
         transform="translate(-293,-248.5)"><path
           d="M 0,480 H 640 V 0 H 0 Z"
           id="path4035" /></g></clipPath></defs><g
     id="g3421"
     transform="matrix(1.3333333,0,0,-1.3333333,-38.524179,259.94893)"><g
       id="g1084"
       transform="matrix(0.95411675,0,0,0.94827911,9.9288201,6.6423483)"><path
         d="M 93.792789,99.542549 H 19.876304 l 14.783297,41.393231 h 73.916489 z"
         style="display:inline;fill:#17388a;fill-opacity:1;fill-rule:nonzero;stroke:none;stroke-width:1.47833"
         id="path3527"
         clip-path="none" /><path
         d="M 36.137932,157.19741 19.876305,99.542548 95.27112,157.19741 Z"
         style="display:inline;fill:url(#linearGradient3545);stroke:none;stroke-width:1.47833"
         id="path3547" /><path
         d="M 36.137932,81.802592 H 95.27112 l 13.30497,59.133188 z"
         style="display:inline;fill:url(#linearGradient3565);stroke:none;stroke-width:1.47833"
         id="path3567" /><path
         d="M 67.182856,157.19741 H 95.27112 l -11.826637,41.39323 z"
         style="fill:url(#linearGradient3585);stroke:none;stroke-width:1.47833"
         id="path3587" /><path
         d="M 36.137932,81.802592 47.96457,40.40936 64.226196,81.802592 Z"
         style="fill:url(#linearGradient3605);stroke:none;stroke-width:1.47833"
         id="path3607" /></g><g
       aria-label="NikStal"
       transform="matrix(1.0250445,0,0,-0.88809688,9.9288201,6.9830482)"
       id="text517"
       style="font-style:italic;font-weight:800;font-size:88.4643px;font-family:'Barlow ExtraBold';-inkscape-font-specification:'Barlow ExtraBold, Ultra-Bold Italic';letter-spacing:0px;word-spacing:0px;fill:#17388a;stroke-width:0;stroke-linecap:round"><path
         d="m 146.08232,-148.74712 q 0.0885,-0.44232 0.35386,-0.70772 0.35386,-0.35385 0.79618,-0.35385 h 12.20807 q 0.44232,0 0.70772,0.35385 0.26539,0.2654 0.17692,0.70772 l -7.34253,59.801866 q -0.0885,0.442322 -0.44232,0.796179 -0.2654,0.265393 -0.70772,0.265393 h -11.67729 q -0.88464,0 -1.15003,-0.707715 l -15.56972,-33.793363 q -0.17693,-0.26539 -0.35386,-0.17693 -0.17693,0 -0.17693,0.35386 l -3.98089,33.262576 q -0.0885,0.442322 -0.44232,0.796179 -0.26539,0.265393 -0.70771,0.265393 h -12.20808 q -0.44232,0 -0.70771,-0.265393 -0.2654,-0.353857 -0.17693,-0.796179 l 7.34254,-59.801866 q 0,-0.44232 0.35385,-0.70772 0.35386,-0.35385 0.79618,-0.35385 h 11.76575 q 0.79618,0 1.06158,0.70771 l 15.56971,33.7049 q 0.0885,0.26539 0.2654,0.26539 0.17692,-0.0885 0.26539,-0.44232 z"
         id="path1224" /><path
         d="m 174.21399,-137.68908 q -3.00779,0 -4.86554,-1.85775 -1.76929,-1.85775 -1.76929,-4.77708 0,-3.80396 2.477,-6.28096 2.477,-2.477 6.01558,-2.477 3.00778,0 4.77707,1.76928 1.85775,1.76929 1.85775,4.77708 0,3.7155 -2.56547,6.28096 -2.477,2.56547 -5.9271,2.56547 z m -12.29654,49.805398 q -0.44232,0 -0.70772,-0.265393 -0.26539,-0.353857 -0.17692,-0.796179 l 5.30785,-43.612896 q 0.0885,-0.44233 0.35386,-0.70772 0.35386,-0.35386 0.79618,-0.35386 h 12.20807 q 0.44232,0 0.70772,0.35386 0.26539,0.26539 0.17693,0.70772 l -5.30786,43.612896 q -0.0885,0.442322 -0.44232,0.796179 -0.2654,0.265393 -0.70772,0.265393 z"
         id="path1226" /><path
         d="m 183.59118,-87.883682 q -0.44232,0 -0.70771,-0.265393 -0.2654,-0.353857 -0.17693,-0.796179 l 7.34254,-59.801866 q 0.0885,-0.44232 0.35385,-0.70772 0.35386,-0.35385 0.79618,-0.35385 h 12.20808 q 0.44232,0 0.70771,0.35385 0.26539,0.2654 0.17693,0.70772 l -3.36165,27.5124 q -0.0885,0.26539 0.0885,0.35385 0.17693,0 0.35386,-0.17693 l 10.88111,-11.94268 q 0.53078,-0.61925 1.32696,-0.61925 h 13.97736 q 0.79618,0 0.79618,0.53079 0,0.44232 -0.35386,0.79618 l -13.09272,14.95047 q -0.0885,0.17692 -0.0885,0.61925 l 9.46568,27.600858 0.0885,0.353857 q 0,0.884643 -1.06157,0.884643 h -12.65039 q -0.88464,0 -1.15004,-0.796179 l -5.48478,-18.842899 q -0.0885,-0.17693 -0.2654,-0.17693 -0.17693,-0.0885 -0.35385,0.0885 l -4.77708,5.92711 q -0.17693,0.35385 -0.17693,0.53078 l -1.50389,12.208076 q -0.0885,0.442322 -0.44232,0.796179 -0.26539,0.265393 -0.70771,0.265393 z"
         id="path1228" /><path
         d="m 251.62022,-87.175968 q -9.90801,0 -15.65819,-4.423215 -5.66171,-4.511679 -5.66171,-12.208077 0,-0.79618 0.17693,-2.56546 l 0.26539,-1.68082 q 0.0885,-0.44232 0.35386,-0.70772 0.35385,-0.35385 0.79618,-0.35385 h 11.94268 q 0.44232,0 0.70771,0.35385 0.26539,0.2654 0.17693,0.70772 l -0.17693,1.06157 q -0.35386,2.91932 2.21161,5.13093 2.65393,2.123141 7.431,2.123141 4.06936,0 6.01557,-1.857751 2.03468,-1.94621 2.03468,-4.24629 0,-2.12314 -1.85775,-3.27317 -1.85775,-1.2385 -6.72329,-3.00779 l -2.03467,-0.70772 q -4.95401,-1.76928 -8.58104,-3.7155 -3.62704,-1.94621 -6.28097,-5.30785 -2.56546,-3.36165 -2.56546,-8.22718 0,-0.70772 0.17693,-2.30008 0.70771,-5.48478 3.98089,-9.55414 3.36164,-4.15782 8.58104,-6.36943 5.21939,-2.21161 11.50036,-2.21161 6.10403,0 10.79264,2.12315 4.77707,2.12314 7.431,6.10403 2.65393,3.89243 2.65393,9.02336 0,0.79618 -0.17693,2.56547 l -0.17693,1.2385 q 0,0.44232 -0.35385,0.79617 -0.35386,0.2654 -0.79618,0.2654 h -11.85422 q -0.44232,0 -0.79618,-0.2654 -0.26539,-0.35385 -0.17692,-0.79617 l 0.0885,-0.61925 q 0.35386,-3.09625 -2.03468,-5.48479 -2.30007,-2.38854 -6.72329,-2.38854 -3.62703,0 -5.75018,1.68082 -2.12314,1.59236 -2.12314,4.51168 0,1.59236 1.15004,2.7424 1.15003,1.15003 3.4501,2.2116 2.30008,0.97311 7.07715,2.7424 5.39632,1.94621 8.31564,3.36164 3.00779,1.41543 5.57325,4.60015 2.65393,3.09625 2.65393,8.05025 0,0.70771 -0.17693,2.30007 -1.06157,8.581036 -7.87332,13.623501 -6.72329,4.954001 -16.98514,4.954001 z"
         id="path1230" /><path
         d="m 312.30667,-122.91555 q 0,0.44233 -0.35385,0.79618 -0.35386,0.2654 -0.79618,0.2654 h -7.78486 q -0.44232,0 -0.44232,0.44232 l -2.03468,16.1005 q -0.0885,0.44232 -0.0885,1.2385 0,3.80397 3.45011,3.80397 h 3.18472 q 0.44232,0 0.70771,0.353853 0.26539,0.265393 0.17693,0.707714 l -1.2385,10.261859 q -0.17693,0.973107 -1.15004,1.150036 -4.24628,0.176929 -6.10403,0.176929 -6.81176,0 -10.1734,-1.946215 -3.27318,-1.946215 -3.27318,-7.254073 0,-0.707714 0.17693,-2.477 l 2.65393,-22.116073 q 0.17693,-0.44232 -0.35386,-0.44232 h -4.86553 q -0.44233,0 -0.70772,-0.2654 -0.26539,-0.35385 -0.17693,-0.79618 l 1.15004,-9.6426 q 0.0885,-0.44233 0.35386,-0.70772 0.35385,-0.35386 0.79617,-0.35386 h 4.86554 q 0.53079,0 0.53079,-0.44232 l 1.32696,-10.70418 q 0.0885,-0.44232 0.35386,-0.70771 0.35386,-0.35386 0.79618,-0.35386 h 11.58882 q 0.44232,0 0.70772,0.35386 0.26539,0.26539 0.17692,0.70771 l -1.32696,10.70418 q 0,0.44232 0.35386,0.44232 h 7.87332 q 0.44232,0 0.70771,0.35386 0.2654,0.26539 0.17693,0.70772 z"
         id="path1232" /><path
         d="m 346.63092,-132.55815 q 0.0885,-0.44233 0.35386,-0.70772 0.35386,-0.35386 0.79618,-0.35386 h 12.20807 q 0.44232,0 0.70771,0.35386 0.2654,0.26539 0.17693,0.70772 l -5.39632,43.612896 q -0.0885,0.442322 -0.44232,0.796179 -0.26539,0.265393 -0.70771,0.265393 h -12.20808 q -0.44232,0 -0.70771,-0.265393 -0.2654,-0.353857 -0.17693,-0.796179 l 0.44232,-3.361643 q 0,-0.265393 -0.17693,-0.353858 -0.0885,-0.08846 -0.35386,0.176929 -4.15782,5.307858 -10.88111,5.307858 -5.75017,0 -9.81953,-3.627036 -3.9809,-3.715501 -5.04247,-9.996466 -0.35386,-1.85775 -0.35386,-4.24629 0,-2.477 0.44233,-5.83864 0.70771,-6.54636 3.09625,-11.32343 2.477,-5.30786 7.25407,-8.6695 4.77707,-3.45011 10.79264,-3.45011 6.54636,0 9.11183,4.51168 0.17693,0.26539 0.35385,0.17693 0.17693,-0.0885 0.17693,-0.35386 z m -4.68861,28.75089 q 1.5039,-2.477 1.94622,-6.90021 0.26539,-2.12315 0.26539,-3.62704 0,-2.03468 -0.53079,-3.62703 -0.53078,-1.76929 -1.85775,-2.7424 -1.2385,-1.06157 -3.18471,-1.06157 -2.03468,0 -3.62704,1.06157 -1.59235,1.06157 -2.56546,2.91932 -1.41543,2.38854 -2.03468,7.07715 -0.17693,1.2385 -0.17693,3.36164 0,2.30007 0.44232,3.62704 0.53079,1.76928 1.85775,2.91932 1.41543,1.061571 3.45011,1.061571 3.89243,0 6.01557,-4.069361 z"
         id="path1234" /><path
         d="m 363.61601,-87.883682 q -0.44232,0 -0.70772,-0.265393 -0.26539,-0.353857 -0.17693,-0.796179 l 7.34254,-59.801866 q 0.0885,-0.44232 0.35386,-0.70772 0.35386,-0.35385 0.79618,-0.35385 h 12.20807 q 0.44232,0 0.70772,0.35385 0.26539,0.2654 0.17692,0.70772 l -7.34253,59.801866 q -0.0885,0.442322 -0.44232,0.796179 -0.2654,0.265393 -0.70772,0.265393 z"
         id="path1236" /></g><g
       aria-label="Skup złomu stalowego i metali kolorowych"
       transform="matrix(0.89526531,0,0,-1.0168369,9.9288201,5.4830481)"
       id="text830"
       style="font-style:italic;font-weight:500;font-size:19.4201px;font-family:'Barlow Medium';-inkscape-font-specification:'Barlow Medium, Medium Italic';fill:#0154ae;stroke-width:0;stroke-linecap:round"><path
         d="m 85.965904,-51.462288 q -2.01969,0 -3.165476,-0.873905 -1.145786,-0.893324 -1.145786,-2.427512 0,-0.135941 0.03884,-0.485503 l 0.07768,-0.563183 q 0,-0.07768 0.05826,-0.13594 0.05826,-0.05826 0.155361,-0.05826 h 1.359407 q 0.0971,0 0.135941,0.05826 0.05826,0.05826 0.03884,0.13594 l -0.05826,0.466083 q -0.01942,0.07768 -0.01942,0.252461 0,0.893325 0.757384,1.456508 0.757384,0.563182 2.097371,0.563182 1.378827,0 2.116791,-0.640863 0.757384,-0.640863 0.757384,-1.650708 0,-0.737964 -0.640864,-1.223466 -0.640863,-0.485503 -2.272151,-1.204047 -1.223466,-0.524342 -1.94201,-0.912744 -0.699124,-0.407822 -1.165206,-1.029266 -0.466082,-0.640863 -0.466082,-1.573028 0,-1.242886 0.602023,-2.155631 0.602023,-0.932164 1.670128,-1.417667 1.087526,-0.485502 2.505193,-0.485502 1.94201,0 3.068376,0.912744 1.145785,0.912745 1.145785,2.446933 0,0.155361 -0.03884,0.504922 l -0.03884,0.388402 q -0.03884,0.194201 -0.213621,0.194201 h -1.417667 q -0.174781,0 -0.174781,-0.194201 l 0.03884,-0.291301 q 0.01942,-0.0971 0.01942,-0.310722 0,-0.893324 -0.699123,-1.456507 -0.699124,-0.582603 -1.96143,-0.582603 -1.281727,0 -2.000271,0.582603 -0.699123,0.582603 -0.699123,1.631288 0,0.524343 0.291301,0.893325 0.310722,0.368982 0.873905,0.660283 0.582603,0.291302 1.728389,0.757384 1.184626,0.504923 1.922589,0.932165 0.737964,0.407822 1.223467,1.068105 0.485502,0.640864 0.485502,1.592448 0,0.155361 -0.03884,0.466083 -0.213621,1.689548 -1.553608,2.699394 -1.339987,1.009845 -3.456778,1.009845 z"
         id="path1239" /><path
         d="m 92.957124,-51.617649 q -0.194201,0 -0.155361,-0.194201 l 1.611868,-13.205668 q 0.03884,-0.194201 0.213621,-0.194201 h 1.437088 q 0.194201,0 0.155361,0.194201 l -0.912745,7.476739 q 0,0.03884 0.01942,0.05826 0.03884,0.01942 0.07768,-0.01942 l 3.961701,-3.90344 q 0.07768,-0.0971 0.233041,-0.0971 h 1.670132 q 0.11652,0 0.13594,0.07768 0.0194,0.05826 -0.0583,0.155361 l -2.796498,2.893594 q -0.03884,0.07768 -0.01942,0.116521 l 2.097368,6.408633 v 0.05826 q 0,0.07768 -0.0583,0.135941 -0.0583,0.03884 -0.13594,0.03884 h -1.495346 q -0.17478,0 -0.194201,-0.155361 l -1.592448,-5.282267 q -0.03884,-0.07768 -0.0971,-0.01942 l -2.019691,2.01969 q -0.03884,0.07768 -0.03884,0.0971 l -0.388402,3.146056 q -0.03884,0.194201 -0.213621,0.194201 z"
         id="path1241" /><path
         d="m 109.32826,-61.308279 q 0,-0.07768 0.0583,-0.13594 0.0583,-0.05826 0.15536,-0.05826 h 1.39825 q 0.0971,0 0.13594,0.05826 0.0583,0.05826 0.0388,0.13594 l -1.1652,9.496429 q -0.0388,0.194201 -0.21363,0.194201 h -1.41766 q -0.1942,0 -0.15536,-0.194201 l 0.0777,-0.718544 q 0.0194,-0.03884 -0.0194,-0.03884 -0.0194,-0.01942 -0.0583,0.01942 -0.89333,1.068106 -2.46636,1.068106 -1.30114,0 -2.17505,-0.718544 -0.8739,-0.718544 -0.8739,-2.01969 0,-0.310722 0.0194,-0.466083 l 0.81564,-6.622254 q 0.0388,-0.194201 0.21362,-0.194201 h 1.41767 q 0.0777,0 0.11652,0.05826 0.0583,0.05826 0.0388,0.13594 l -0.73796,6.039651 q -0.0194,0.135941 -0.0194,0.388402 0,0.835065 0.44666,1.320567 0.44666,0.466082 1.28173,0.466082 0.95158,0 1.57302,-0.582603 0.64087,-0.602023 0.75739,-1.592448 z"
         id="path1243" /><path
         d="m 121.25219,-59.016707 q 0.13594,0.563183 0.13594,1.339987 0,0.602023 -0.0777,1.145786 -0.17478,1.378827 -0.60202,2.349832 -0.56318,1.301146 -1.55361,2.01969 -0.99043,0.699124 -2.38867,0.699124 -0.66029,0 -1.20405,-0.252462 -0.52434,-0.271881 -0.8739,-0.757383 -0.0388,-0.03884 -0.0777,-0.01942 -0.0194,0.01942 -0.0194,0.05826 l -0.54377,4.330682 q -0.0388,0.194201 -0.21362,0.194201 h -1.41766 q -0.0971,0 -0.15537,-0.05826 -0.0388,-0.05826 -0.0194,-0.135941 l 1.63129,-13.205668 q 0,-0.07768 0.0583,-0.13594 0.0583,-0.05826 0.15536,-0.05826 h 1.41767 q 0.17478,0 0.17478,0.194201 l -0.0777,0.640864 q -0.0194,0.03884 0,0.05826 0.0388,0.01942 0.0777,-0.01942 0.46608,-0.504923 1.06811,-0.757384 0.60202,-0.271881 1.2623,-0.271881 1.35941,0 2.17506,0.699123 0.81564,0.679704 1.0681,1.94201 z m -2.67997,5.010386 q 0.71854,-0.932165 0.91274,-2.563453 0.0583,-0.524343 0.0583,-0.951585 0,-0.873905 -0.23304,-1.456508 -0.1942,-0.524342 -0.62144,-0.796224 -0.42724,-0.271881 -1.04869,-0.271881 -1.0681,0 -1.78665,1.048685 -0.56318,0.854485 -0.73796,2.446933 -0.0777,0.776804 -0.0777,1.048685 0,0.835064 0.25246,1.437087 0.42724,0.990425 1.47593,0.990425 1.10694,0 1.80607,-0.932164 z"
         id="path1245" /><path
         d="m 126.26259,-51.617649 q -0.0777,0 -0.13594,-0.05826 -0.0388,-0.05826 -0.0194,-0.135941 l 0.17478,-1.359407 q 0,-0.135941 0.0971,-0.233041 l 5.76777,-6.292112 q 0.0388,-0.03884 0.0194,-0.05826 -0.0194,-0.03884 -0.0583,-0.03884 h -4.7385 q -0.17479,0 -0.17479,-0.194201 l 0.17479,-1.320567 q 0.0388,-0.194201 0.21362,-0.194201 h 6.79703 q 0.1942,0 0.15536,0.194201 l -0.15536,1.378827 q -0.0194,0.135941 -0.11652,0.233042 l -5.82603,6.292112 q -0.0388,0.01942 -0.0388,0.05826 0.0194,0.03884 0.0583,0.03884 h 4.93271 q 0.17478,0 0.17478,0.194201 l -0.17478,1.301147 q 0,0.07768 -0.0583,0.135941 -0.0583,0.05826 -0.15536,0.05826 z"
         id="path1247" /><path
         d="m 141.60447,-59.65757 q 0.0194,0.01942 0.0194,0.07768 0,0.135941 -0.13594,0.194201 l -2.31099,1.281727 q -0.0777,0.03884 -0.0777,0.0971 l -0.75738,6.195012 q -0.0388,0.194201 -0.21363,0.194201 h -1.43708 q -0.1942,0 -0.15536,-0.194201 l 0.62144,-5.068646 q 0,-0.03884 -0.0388,-0.05826 -0.0194,-0.01942 -0.0583,0 l -1.32057,0.737963 q -0.0388,0.01942 -0.0971,0.01942 -0.11652,0 -0.15536,-0.0971 l -0.34956,-0.873904 q -0.0194,-0.01942 -0.0194,-0.07768 0,-0.13594 0.11652,-0.194201 l 2.07795,-1.145786 q 0.0583,-0.03884 0.0583,-0.0971 l 0.7768,-6.350373 q 0.0388,-0.194201 0.21363,-0.194201 h 1.43708 q 0.1942,0 0.15536,0.194201 l -0.62144,5.204587 q -0.0194,0.03884 0,0.05826 0.0388,0.01942 0.0777,0 l 1.55361,-0.873904 q 0.0388,-0.01942 0.0971,-0.01942 0.11652,0 0.15536,0.0971 z"
         id="path1249" /><path
         d="m 146.28472,-51.462288 q -1.39825,0 -2.34983,-0.718544 -0.93217,-0.737964 -1.18463,-2.03911 -0.11652,-0.563183 -0.11652,-1.301147 0,-0.543763 0.0583,-1.068105 0.1942,-1.417668 0.62145,-2.330412 0.56318,-1.281727 1.68954,-2.000271 1.12637,-0.737963 2.56346,-0.737963 1.3594,0 2.27215,0.737963 0.91274,0.718544 1.18462,1.980851 0.11653,0.543762 0.11653,1.242886 0,0.524343 -0.0583,1.087525 -0.15536,1.359407 -0.62144,2.388673 -0.5826,1.301146 -1.68955,2.03911 -1.10694,0.718544 -2.48577,0.718544 z m 0.1942,-1.611869 q 0.77681,0 1.39825,-0.427242 0.62144,-0.446662 0.95158,-1.242886 0.31073,-0.835064 0.42725,-1.825489 0.0777,-0.854485 0.0777,-1.204047 0,-0.252461 -0.0388,-0.602023 -0.15536,-0.796224 -0.67971,-1.223466 -0.50492,-0.446662 -1.30114,-0.446662 -0.77681,0 -1.39825,0.446662 -0.62144,0.427242 -0.97101,1.223466 -0.27188,0.660284 -0.42724,1.80607 -0.0583,0.524342 -0.0583,1.009845 0,0.466082 0.0583,0.815644 0.11652,0.776804 0.64086,1.223466 0.52435,0.446662 1.32057,0.446662 z"
         id="path1251" /><path
         d="m 164.03469,-61.63842 q 1.28173,0 2.00028,0.718543 0.71854,0.718544 0.71854,2.019691 0,0.174781 -0.0388,0.602023 l -0.79623,6.486313 q -0.0388,0.194201 -0.21362,0.194201 h -1.41766 q -0.1942,0 -0.15536,-0.194201 l 0.73796,-6.097911 q 0.0194,-0.135941 0.0194,-0.407822 0,-0.796224 -0.44666,-1.242887 -0.42725,-0.466082 -1.20405,-0.466082 -0.8739,0 -1.49535,0.563183 -0.60202,0.563183 -0.71854,1.514768 l -0.75738,6.136751 q -0.0388,0.194201 -0.21363,0.194201 h -1.41766 q -0.1942,0 -0.15536,-0.194201 l 0.73796,-6.097911 q 0.0194,-0.135941 0.0194,-0.407822 0,-0.796224 -0.44666,-1.242887 -0.42724,-0.466082 -1.20405,-0.466082 -0.8739,0 -1.45651,0.563183 -0.5826,0.563183 -0.69912,1.514768 l -0.75738,6.136751 q -0.0388,0.194201 -0.21362,0.194201 h -1.43709 q -0.1942,0 -0.15536,-0.194201 l 1.1652,-9.496429 q 0.0388,-0.194201 0.21362,-0.194201 h 1.41767 q 0.0971,0 0.13594,0.05826 0.0583,0.05826 0.0388,0.13594 l -0.0777,0.660284 q -0.0194,0.03884 0,0.05826 0.0388,0.01942 0.0777,-0.01942 0.97101,-1.029265 2.54404,-1.029265 0.95158,0 1.59244,0.388402 0.64087,0.368982 0.91275,1.106945 0.0583,0.07768 0.11652,0 0.52434,-0.757384 1.32057,-1.126365 0.79622,-0.368982 1.70896,-0.368982 z"
         id="path1253" /><path
         d="m 175.29836,-61.308279 q 0,-0.07768 0.0583,-0.13594 0.0583,-0.05826 0.15537,-0.05826 h 1.39824 q 0.0971,0 0.13594,0.05826 0.0583,0.05826 0.0388,0.13594 l -1.1652,9.496429 q -0.0388,0.194201 -0.21362,0.194201 h -1.41767 q -0.1942,0 -0.15536,-0.194201 l 0.0777,-0.718544 q 0.0194,-0.03884 -0.0194,-0.03884 -0.0194,-0.01942 -0.0583,0.01942 -0.89333,1.068106 -2.46635,1.068106 -1.30115,0 -2.17506,-0.718544 -0.8739,-0.718544 -0.8739,-2.01969 0,-0.310722 0.0194,-0.466083 l 0.81564,-6.622254 q 0.0388,-0.194201 0.21363,-0.194201 h 1.41766 q 0.0777,0 0.11652,0.05826 0.0583,0.05826 0.0388,0.13594 l -0.73796,6.039651 q -0.0194,0.135941 -0.0194,0.388402 0,0.835065 0.44666,1.320567 0.44666,0.466082 1.28173,0.466082 0.95158,0 1.57303,-0.582603 0.64086,-0.602023 0.75738,-1.592448 z"
         id="path1255" /><path
         d="m 185.64927,-51.501128 q -1.59245,0 -2.54403,-0.679704 -0.93217,-0.679703 -0.93217,-1.728389 0,-0.174781 0.0194,-0.252461 l 0.0388,-0.213621 q 0,-0.07768 0.0583,-0.135941 0.0583,-0.05826 0.15537,-0.05826 h 1.33998 q 0.0971,0 0.13594,0.05826 0.0583,0.05826 0.0388,0.135941 l -0.0194,0.0971 q -0.0583,0.543763 0.46609,0.951585 0.52434,0.407822 1.39824,0.407822 0.91275,0 1.49535,-0.407822 0.5826,-0.427242 0.5826,-1.048685 0,-0.504923 -0.46608,-0.757384 -0.44666,-0.271881 -1.43709,-0.563183 -0.99042,-0.291301 -1.63129,-0.582603 -0.64086,-0.291301 -1.08752,-0.815644 -0.44666,-0.524343 -0.44666,-1.320567 0,-1.456507 1.10694,-2.310992 1.12637,-0.873904 2.87418,-0.873904 1.53419,0 2.44693,0.699123 0.91274,0.679704 0.91274,1.78665 0,0.213621 -0.0194,0.310721 l -0.0194,0.05826 q 0,0.07768 -0.0583,0.135941 -0.0583,0.05826 -0.13594,0.05826 h -1.32056 q -0.0971,0 -0.15536,-0.05826 -0.0388,-0.05826 -0.0194,-0.135941 l 0.0194,-0.05826 q 0.0583,-0.563183 -0.44667,-0.932165 -0.4855,-0.388402 -1.39824,-0.388402 -0.89333,0 -1.45651,0.368982 -0.56318,0.349562 -0.56318,0.971005 0,0.504923 0.46608,0.776804 0.46608,0.271882 1.47593,0.582603 1.00984,0.291302 1.6507,0.563183 0.64087,0.271882 1.08753,0.796224 0.46608,0.524343 0.46608,1.339987 0,0.971005 -0.52434,1.708969 -0.50492,0.718543 -1.43709,1.126366 -0.93216,0.388402 -2.11679,0.388402 z"
         id="path1257" /><path
         d="m 197.22366,-60.162493 q -0.0388,0.194201 -0.21362,0.194201 h -2.03911 q -0.0777,0 -0.0777,0.07768 l -0.64086,5.146326 q -0.0194,0.135941 -0.0194,0.368982 0,0.621443 0.31072,0.893324 0.33014,0.271882 0.99043,0.271882 h 0.54376 q 0.0971,0 0.13594,0.05826 0.0583,0.05826 0.0388,0.135941 l -0.15536,1.204046 q 0,0.194201 -0.1942,0.194201 -0.62144,0.03884 -0.87391,0.03884 -1.30114,0 -1.96143,-0.407822 -0.66028,-0.427242 -0.66028,-1.534188 0,-0.174781 0.0388,-0.563183 l 0.71854,-5.806609 q 0,-0.07768 -0.0777,-0.07768 h -1.14578 q -0.1942,0 -0.15536,-0.194201 l 0.13594,-1.145786 q 0.0388,-0.194201 0.21362,-0.194201 h 1.14578 q 0.0777,0 0.0777,-0.07768 l 0.2913,-2.291572 q 0.0388,-0.194201 0.21362,-0.194201 h 1.3594 q 0.0777,0 0.11653,0.05826 0.0583,0.05826 0.0388,0.13594 l -0.27189,2.291572 q -0.0194,0.01942 0,0.05826 0.0194,0.01942 0.0583,0.01942 h 2.03911 q 0.19421,0 0.15537,0.194201 z"
         id="path1259" /><path
         d="m 205.45779,-61.308279 q 0.0388,-0.194201 0.21362,-0.194201 h 1.43709 q 0.1942,0 0.15536,0.194201 l -1.16521,9.496429 q 0,0.07768 -0.0583,0.135941 -0.0583,0.05826 -0.15536,0.05826 h -1.41767 q -0.17478,0 -0.17478,-0.194201 l 0.13594,-1.087526 q 0.0194,-0.05826 -0.0194,-0.05826 -0.0388,-0.01942 -0.0583,0.03884 -1.00984,1.456508 -2.71881,1.456508 -1.24289,0 -2.07795,-0.757384 -0.83506,-0.757384 -1.00985,-2.01969 -0.0388,-0.427243 -0.0388,-0.640864 0,-0.543763 0.13594,-1.670128 0.0971,-0.835065 0.21363,-1.417668 0.13594,-0.582603 0.34956,-1.087525 0.44666,-1.145786 1.45651,-1.86433 1.00984,-0.737963 2.31099,-0.737963 1.70897,0 2.27215,1.378827 0.0194,0.05826 0.0388,0.05826 0.0388,-0.01942 0.0583,-0.07768 z m -0.97101,6.622254 q 0.13595,-0.310721 0.21363,-0.660283 0.0777,-0.368982 0.17478,-1.184626 0.11652,-0.815644 0.11652,-1.378827 0,-0.194201 -0.0388,-0.543763 -0.0971,-0.699124 -0.56319,-1.145786 -0.44666,-0.446662 -1.20404,-0.446662 -0.79623,0 -1.41767,0.446662 -0.60202,0.446662 -0.83506,1.165206 -0.13594,0.291302 -0.21362,0.640863 -0.0777,0.349562 -0.19421,1.223467 -0.11652,1.009845 -0.11652,1.339986 0,0.271882 0.0583,0.543763 0.0583,0.718544 0.56319,1.165206 0.50492,0.446662 1.30114,0.446662 0.77681,0 1.32057,-0.446662 0.56318,-0.466082 0.83506,-1.165206 z"
         id="path1261" /><path
         d="m 208.89514,-51.617649 q -0.1942,0 -0.15536,-0.194201 l 1.61187,-13.205668 q 0.0388,-0.194201 0.21362,-0.194201 h 1.43709 q 0.1942,0 0.15536,0.194201 l -1.61187,13.205668 q -0.0388,0.194201 -0.21362,0.194201 z"
         id="path1263" /><path
         d="m 217.03217,-51.462288 q -1.39825,0 -2.34983,-0.718544 -0.93217,-0.737964 -1.18463,-2.03911 -0.11652,-0.563183 -0.11652,-1.301147 0,-0.543763 0.0583,-1.068105 0.1942,-1.417668 0.62144,-2.330412 0.56319,-1.281727 1.68955,-2.000271 1.12637,-0.737963 2.56345,-0.737963 1.35941,0 2.27216,0.737963 0.91274,0.718544 1.18462,1.980851 0.11652,0.543762 0.11652,1.242886 0,0.524343 -0.0583,1.087525 -0.15536,1.359407 -0.62144,2.388673 -0.5826,1.301146 -1.68955,2.03911 -1.10694,0.718544 -2.48577,0.718544 z m 0.1942,-1.611869 q 0.7768,0 1.39825,-0.427242 0.62144,-0.446662 0.95158,-1.242886 0.31072,-0.835064 0.42724,-1.825489 0.0777,-0.854485 0.0777,-1.204047 0,-0.252461 -0.0388,-0.602023 -0.15536,-0.796224 -0.6797,-1.223466 -0.50492,-0.446662 -1.30115,-0.446662 -0.7768,0 -1.39824,0.446662 -0.62145,0.427242 -0.97101,1.223466 -0.27188,0.660284 -0.42724,1.80607 -0.0583,0.524342 -0.0583,1.009845 0,0.466082 0.0583,0.815644 0.11652,0.776804 0.64086,1.223466 0.52435,0.446662 1.32057,0.446662 z"
         id="path1265" /><path
         d="m 225.26628,-51.617649 q -0.13594,0 -0.1942,-0.155361 l -1.53419,-9.515849 v -0.03884 q 0,-0.174781 0.1942,-0.174781 h 1.47593 q 0.0777,0 0.11652,0.05826 0.0583,0.03884 0.0583,0.11652 l 0.93217,7.049496 q 0,0.03884 0.0388,0.03884 0.0388,0 0.0583,-0.03884 l 2.67997,-7.049496 q 0.0777,-0.174781 0.23304,-0.174781 h 1.30115 q 0.15536,0 0.1942,0.174781 l 0.99043,7.030076 q 0.0194,0.03884 0.0388,0.03884 0.0388,0 0.0583,-0.03884 l 2.71881,-7.030076 q 0.0777,-0.174781 0.23304,-0.174781 l 1.45651,0.01942 q 0.23304,0 0.13594,0.213622 l -3.88402,9.496428 q -0.0971,0.155361 -0.23304,0.155361 h -1.47593 q -0.13594,0 -0.17478,-0.155361 l -1.04869,-6.563993 q -0.0194,-0.03884 -0.0583,-0.03884 -0.0194,0 -0.0388,0.03884 l -2.54403,6.544573 q -0.0777,0.174781 -0.23304,0.174781 z"
         id="path1267" /><path
         d="m 245.23017,-57.929181 q 0,0.679703 -0.15536,1.922589 -0.0194,0.194201 -0.21362,0.194201 h -6.02023 q -0.0777,0 -0.0777,0.07768 -0.0388,0.466082 -0.0388,0.621443 0,0.194201 0.0388,0.388402 0.0971,0.776804 0.66028,1.223466 0.5826,0.427242 1.55361,0.427242 1.37883,0 2.29157,-1.184626 0.11652,-0.194201 0.25246,-0.05826 l 0.99043,0.737964 q 0.11652,0.11652 0.0194,0.252461 -0.64087,0.893325 -1.67013,1.398247 -1.02927,0.485503 -2.25273,0.485503 -1.37883,0 -2.23331,-0.602023 -0.85449,-0.621443 -1.20405,-1.786649 -0.1942,-0.660284 -0.1942,-1.553608 0,-0.368982 0.0777,-1.223467 0.0971,-0.737963 0.1942,-1.242886 0.11652,-0.504923 0.2913,-0.912745 0.50492,-1.339986 1.61187,-2.11679 1.10695,-0.776804 2.56345,-0.776804 1.86433,0 2.67998,0.951584 0.83506,0.951585 0.83506,2.777075 z m -3.70924,-2.116791 q -0.81564,0 -1.39824,0.427242 -0.56319,0.407822 -0.85449,1.106946 -0.17478,0.427242 -0.2913,1.087525 -0.0194,0.07768 0.0583,0.07768 h 4.31126 q 0.0777,0 0.0777,-0.07768 0.0388,-0.466082 0.0388,-0.621443 0,-0.893324 -0.52434,-1.437087 -0.50492,-0.563183 -1.41767,-0.563183 z"
         id="path1269" /><path
         d="m 253.89155,-61.308279 q 0.0388,-0.194201 0.21362,-0.194201 h 1.43709 q 0.1942,0 0.15536,0.194201 l -1.12637,9.185707 q -0.2913,2.349832 -1.70897,3.359678 -1.39824,1.009845 -3.57329,1.009845 -0.31073,0 -0.93217,-0.03884 -0.17478,-0.01942 -0.15536,-0.213621 l 0.21362,-1.339986 q 0.0194,-0.0971 0.0777,-0.155361 0.0777,-0.03884 0.15536,-0.01942 0.27188,0.01942 0.77681,0.01942 1.59244,0 2.36925,-0.621443 0.79622,-0.602024 0.99042,-2.058531 l 0.0388,-0.349562 q 0,-0.11652 -0.0971,-0.03884 -0.89332,0.951585 -2.42751,0.951585 -1.22347,0 -2.13621,-0.660283 -0.91274,-0.660284 -1.12637,-1.94201 -0.0583,-0.407822 -0.0583,-0.873905 0,-0.621443 0.0971,-1.495347 0.19421,-1.553608 0.60203,-2.485773 0.50492,-1.165206 1.49534,-1.86433 1.00985,-0.718543 2.25274,-0.718543 1.53418,0 2.31099,0.971005 0.0583,0.0971 0.0971,-0.01942 z m -0.91275,6.525154 q 0.0971,-0.291302 0.15537,-0.621443 0.0777,-0.330142 0.1942,-1.204047 0.11652,-1.048685 0.11652,-1.339986 0,-0.155361 -0.0388,-0.466083 -0.0583,-0.718543 -0.52435,-1.165206 -0.46608,-0.466082 -1.2623,-0.466082 -0.77681,0 -1.37883,0.466082 -0.5826,0.446663 -0.89332,1.165206 -0.31073,0.640863 -0.42725,1.806069 -0.0971,0.873905 -0.0971,1.242887 0,0.368982 0.0583,0.582603 0.0971,0.718543 0.60203,1.184626 0.50492,0.446662 1.28172,0.446662 0.81565,0 1.39825,-0.446662 0.5826,-0.466083 0.81564,-1.184626 z"
         id="path1271" /><path
         d="m 260.94104,-51.462288 q -1.39824,0 -2.34983,-0.718544 -0.93216,-0.737964 -1.18463,-2.03911 -0.11652,-0.563183 -0.11652,-1.301147 0,-0.543763 0.0583,-1.068105 0.19421,-1.417668 0.62145,-2.330412 0.56318,-1.281727 1.68955,-2.000271 1.12636,-0.737963 2.56345,-0.737963 1.35941,0 2.27215,0.737963 0.91275,0.718544 1.18463,1.980851 0.11652,0.543762 0.11652,1.242886 0,0.524343 -0.0583,1.087525 -0.15536,1.359407 -0.62145,2.388673 -0.5826,1.301146 -1.68954,2.03911 -1.10695,0.718544 -2.48578,0.718544 z m 0.1942,-1.611869 q 0.77681,0 1.39825,-0.427242 0.62144,-0.446662 0.95159,-1.242886 0.31072,-0.835064 0.42724,-1.825489 0.0777,-0.854485 0.0777,-1.204047 0,-0.252461 -0.0388,-0.602023 -0.15536,-0.796224 -0.67971,-1.223466 -0.50492,-0.446662 -1.30114,-0.446662 -0.77681,0 -1.39825,0.446662 -0.62144,0.427242 -0.971,1.223466 -0.27189,0.660284 -0.42725,1.80607 -0.0583,0.524342 -0.0583,1.009845 0,0.466082 0.0583,0.815644 0.11652,0.776804 0.64087,1.223466 0.52434,0.446662 1.32056,0.446662 z"
         id="path1273" /><path
         d="m 273.75833,-63.056088 q -0.48551,0 -0.77681,-0.291301 -0.2913,-0.291302 -0.2913,-0.757384 0,-0.621443 0.3884,-1.029265 0.40782,-0.407822 0.99043,-0.407822 0.4855,0 0.7768,0.291301 0.2913,0.271882 0.2913,0.757384 0,0.602023 -0.40782,1.029265 -0.40782,0.407822 -0.971,0.407822 z m -2.15563,11.419019 q -0.19421,0 -0.15537,-0.194201 l 1.16521,-9.477009 q 0,-0.07768 0.0583,-0.13594 0.0583,-0.05826 0.13594,-0.05826 h 1.43709 q 0.17478,0 0.17478,0.194201 l -1.16521,9.477009 q -0.0388,0.194201 -0.21362,0.194201 z"
         id="path1275" /><path
         d="m 291.02279,-61.63842 q 1.28172,0 2.00027,0.718543 0.71854,0.718544 0.71854,2.019691 0,0.174781 -0.0388,0.602023 l -0.79622,6.486313 q -0.0389,0.194201 -0.21363,0.194201 h -1.41766 q -0.1942,0 -0.15536,-0.194201 l 0.73796,-6.097911 q 0.0194,-0.135941 0.0194,-0.407822 0,-0.796224 -0.44666,-1.242887 -0.42724,-0.466082 -1.20405,-0.466082 -0.8739,0 -1.49535,0.563183 -0.60202,0.563183 -0.71854,1.514768 l -0.75738,6.136751 q -0.0388,0.194201 -0.21362,0.194201 H 285.624 q -0.1942,0 -0.15536,-0.194201 l 0.73796,-6.097911 q 0.0194,-0.135941 0.0194,-0.407822 0,-0.796224 -0.44666,-1.242887 -0.42724,-0.466082 -1.20405,-0.466082 -0.8739,0 -1.4565,0.563183 -0.58261,0.563183 -0.69913,1.514768 l -0.75738,6.136751 q -0.0388,0.194201 -0.21362,0.194201 h -1.43709 q -0.1942,0 -0.15536,-0.194201 l 1.1652,-9.496429 q 0.0388,-0.194201 0.21363,-0.194201 h 1.41766 q 0.0971,0 0.13594,0.05826 0.0583,0.05826 0.0388,0.13594 l -0.0777,0.660284 q -0.0194,0.03884 0,0.05826 0.0388,0.01942 0.0777,-0.01942 0.97101,-1.029265 2.54404,-1.029265 0.95158,0 1.59244,0.388402 0.64087,0.368982 0.91275,1.106945 0.0583,0.07768 0.11652,0 0.52434,-0.757384 1.32057,-1.126365 0.79622,-0.368982 1.70897,-0.368982 z"
         id="path1277" /><path
         d="m 303.78179,-57.929181 q 0,0.679703 -0.15536,1.922589 -0.0194,0.194201 -0.21362,0.194201 h -6.02023 q -0.0777,0 -0.0777,0.07768 -0.0388,0.466082 -0.0388,0.621443 0,0.194201 0.0388,0.388402 0.0971,0.776804 0.66028,1.223466 0.58261,0.427242 1.55361,0.427242 1.37883,0 2.29157,-1.184626 0.11652,-0.194201 0.25246,-0.05826 l 0.99043,0.737964 q 0.11652,0.11652 0.0194,0.252461 -0.64087,0.893325 -1.67013,1.398247 -1.02927,0.485503 -2.25273,0.485503 -1.37883,0 -2.23331,-0.602023 -0.85449,-0.621443 -1.20405,-1.786649 -0.1942,-0.660284 -0.1942,-1.553608 0,-0.368982 0.0777,-1.223467 0.0971,-0.737963 0.1942,-1.242886 0.11652,-0.504923 0.2913,-0.912745 0.50493,-1.339986 1.61187,-2.11679 1.10695,-0.776804 2.56345,-0.776804 1.86433,0 2.67998,0.951584 0.83506,0.951585 0.83506,2.777075 z m -3.70924,-2.116791 q -0.81564,0 -1.39824,0.427242 -0.56319,0.407822 -0.85449,1.106946 -0.17478,0.427242 -0.2913,1.087525 -0.0194,0.07768 0.0583,0.07768 h 4.31126 q 0.0777,0 0.0777,-0.07768 0.0388,-0.466082 0.0388,-0.621443 0,-0.893324 -0.52434,-1.437087 -0.50492,-0.563183 -1.41767,-0.563183 z"
         id="path1279" /><path
         d="m 310.98667,-60.162493 q -0.0388,0.194201 -0.21362,0.194201 h -2.03911 q -0.0777,0 -0.0777,0.07768 l -0.64086,5.146326 q -0.0194,0.135941 -0.0194,0.368982 0,0.621443 0.31072,0.893324 0.33014,0.271882 0.99042,0.271882 h 0.54377 q 0.0971,0 0.13594,0.05826 0.0583,0.05826 0.0388,0.135941 l -0.15536,1.204046 q 0,0.194201 -0.1942,0.194201 -0.62145,0.03884 -0.87391,0.03884 -1.30114,0 -1.96143,-0.407822 -0.66028,-0.427242 -0.66028,-1.534188 0,-0.174781 0.0388,-0.563183 l 0.71854,-5.806609 q 0,-0.07768 -0.0777,-0.07768 h -1.14578 q -0.1942,0 -0.15536,-0.194201 l 0.13594,-1.145786 q 0.0388,-0.194201 0.21362,-0.194201 h 1.14578 q 0.0777,0 0.0777,-0.07768 l 0.2913,-2.291572 q 0.0389,-0.194201 0.21363,-0.194201 h 1.3594 q 0.0777,0 0.11652,0.05826 0.0583,0.05826 0.0388,0.13594 l -0.27188,2.291572 q -0.0194,0.01942 0,0.05826 0.0194,0.01942 0.0583,0.01942 h 2.03911 q 0.1942,0 0.15536,0.194201 z"
         id="path1281" /><path
         d="m 319.22079,-61.308279 q 0.0388,-0.194201 0.21362,-0.194201 h 1.43709 q 0.1942,0 0.15536,0.194201 l -1.16521,9.496429 q 0,0.07768 -0.0583,0.135941 -0.0583,0.05826 -0.15536,0.05826 h -1.41766 q -0.17479,0 -0.17479,-0.194201 l 0.13594,-1.087526 q 0.0194,-0.05826 -0.0194,-0.05826 -0.0388,-0.01942 -0.0583,0.03884 -1.00984,1.456508 -2.71881,1.456508 -1.24289,0 -2.07795,-0.757384 -0.83506,-0.757384 -1.00985,-2.01969 -0.0388,-0.427243 -0.0388,-0.640864 0,-0.543763 0.13595,-1.670128 0.0971,-0.835065 0.21362,-1.417668 0.13594,-0.582603 0.34956,-1.087525 0.44666,-1.145786 1.45651,-1.86433 1.00984,-0.737963 2.31099,-0.737963 1.70897,0 2.27215,1.378827 0.0194,0.05826 0.0388,0.05826 0.0388,-0.01942 0.0583,-0.07768 z m -0.971,6.622254 q 0.13594,-0.310721 0.21362,-0.660283 0.0777,-0.368982 0.17478,-1.184626 0.11652,-0.815644 0.11652,-1.378827 0,-0.194201 -0.0388,-0.543763 -0.0971,-0.699124 -0.56319,-1.145786 -0.44666,-0.446662 -1.20404,-0.446662 -0.79623,0 -1.41767,0.446662 -0.60202,0.446662 -0.83506,1.165206 -0.13594,0.291302 -0.21362,0.640863 -0.0777,0.349562 -0.19421,1.223467 -0.11652,1.009845 -0.11652,1.339986 0,0.271882 0.0583,0.543763 0.0583,0.718544 0.56319,1.165206 0.50492,0.446662 1.30114,0.446662 0.77681,0 1.32057,-0.446662 0.56318,-0.466082 0.83507,-1.165206 z"
         id="path1283" /><path
         d="m 322.65815,-51.617649 q -0.1942,0 -0.15536,-0.194201 l 1.61187,-13.205668 q 0.0388,-0.194201 0.21362,-0.194201 h 1.43709 q 0.1942,0 0.15536,0.194201 l -1.61187,13.205668 q -0.0388,0.194201 -0.21362,0.194201 z"
         id="path1285" /><path
         d="m 329.39694,-63.056088 q -0.48551,0 -0.77681,-0.291301 -0.2913,-0.291302 -0.2913,-0.757384 0,-0.621443 0.3884,-1.029265 0.40783,-0.407822 0.99043,-0.407822 0.4855,0 0.7768,0.291301 0.2913,0.271882 0.2913,0.757384 0,0.602023 -0.40782,1.029265 -0.40782,0.407822 -0.971,0.407822 z m -2.15563,11.419019 q -0.1942,0 -0.15536,-0.194201 l 1.1652,-9.477009 q 0,-0.07768 0.0583,-0.13594 0.0583,-0.05826 0.13594,-0.05826 h 1.43709 q 0.17478,0 0.17478,0.194201 l -1.16521,9.477009 q -0.0388,0.194201 -0.21362,0.194201 z"
         id="path1287" /><path
         d="m 335.65022,-51.617649 q -0.19421,0 -0.15537,-0.194201 l 1.61187,-13.205668 q 0.0388,-0.194201 0.21362,-0.194201 h 1.43709 q 0.1942,0 0.15536,0.194201 l -0.91274,7.476739 q 0,0.03884 0.0194,0.05826 0.0388,0.01942 0.0777,-0.01942 l 3.9617,-3.90344 q 0.0777,-0.0971 0.23304,-0.0971 h 1.67013 q 0.11652,0 0.13594,0.07768 0.0194,0.05826 -0.0583,0.155361 l -2.7965,2.893594 q -0.0388,0.07768 -0.0194,0.116521 l 2.09737,6.408633 v 0.05826 q 0,0.07768 -0.0583,0.135941 -0.0583,0.03884 -0.13594,0.03884 h -1.49534 q -0.17479,0 -0.19421,-0.155361 l -1.59244,-5.282267 q -0.0388,-0.07768 -0.0971,-0.01942 l -2.01969,2.01969 q -0.0388,0.07768 -0.0388,0.0971 l -0.38841,3.146056 q -0.0388,0.194201 -0.21362,0.194201 z"
         id="path1289" /><path
         d="m 348.44808,-51.462288 q -1.39825,0 -2.34983,-0.718544 -0.93217,-0.737964 -1.18463,-2.03911 -0.11652,-0.563183 -0.11652,-1.301147 0,-0.543763 0.0583,-1.068105 0.1942,-1.417668 0.62144,-2.330412 0.56318,-1.281727 1.68955,-2.000271 1.12637,-0.737963 2.56345,-0.737963 1.35941,0 2.27216,0.737963 0.91274,0.718544 1.18462,1.980851 0.11652,0.543762 0.11652,1.242886 0,0.524343 -0.0583,1.087525 -0.15536,1.359407 -0.62144,2.388673 -0.5826,1.301146 -1.68955,2.03911 -1.10695,0.718544 -2.48577,0.718544 z m 0.1942,-1.611869 q 0.7768,0 1.39825,-0.427242 0.62144,-0.446662 0.95158,-1.242886 0.31072,-0.835064 0.42724,-1.825489 0.0777,-0.854485 0.0777,-1.204047 0,-0.252461 -0.0388,-0.602023 -0.15536,-0.796224 -0.6797,-1.223466 -0.50492,-0.446662 -1.30115,-0.446662 -0.7768,0 -1.39824,0.446662 -0.62145,0.427242 -0.97101,1.223466 -0.27188,0.660284 -0.42724,1.80607 -0.0583,0.524342 -0.0583,1.009845 0,0.466082 0.0583,0.815644 0.11652,0.776804 0.64086,1.223466 0.52434,0.446662 1.32057,0.446662 z"
         id="path1291" /><path
         d="m 355.18684,-51.617649 q -0.1942,0 -0.15536,-0.194201 l 1.61186,-13.205668 q 0.0388,-0.194201 0.21362,-0.194201 h 1.43709 q 0.1942,0 0.15536,0.194201 l -1.61187,13.205668 q -0.0388,0.194201 -0.21362,0.194201 z"
         id="path1293" /><path
         d="m 363.32387,-51.462288 q -1.39825,0 -2.34983,-0.718544 -0.93217,-0.737964 -1.18463,-2.03911 -0.11652,-0.563183 -0.11652,-1.301147 0,-0.543763 0.0583,-1.068105 0.1942,-1.417668 0.62145,-2.330412 0.56318,-1.281727 1.68954,-2.000271 1.12637,-0.737963 2.56346,-0.737963 1.3594,0 2.27215,0.737963 0.91274,0.718544 1.18462,1.980851 0.11653,0.543762 0.11653,1.242886 0,0.524343 -0.0583,1.087525 -0.15537,1.359407 -0.62145,2.388673 -0.5826,1.301146 -1.68955,2.03911 -1.10694,0.718544 -2.48577,0.718544 z m 0.1942,-1.611869 q 0.77681,0 1.39825,-0.427242 0.62144,-0.446662 0.95158,-1.242886 0.31073,-0.835064 0.42725,-1.825489 0.0777,-0.854485 0.0777,-1.204047 0,-0.252461 -0.0388,-0.602023 -0.15536,-0.796224 -0.67971,-1.223466 -0.50492,-0.446662 -1.30114,-0.446662 -0.77681,0 -1.39825,0.446662 -0.62144,0.427242 -0.97101,1.223466 -0.27188,0.660284 -0.42724,1.80607 -0.0583,0.524342 -0.0583,1.009845 0,0.466082 0.0583,0.815644 0.11652,0.776804 0.64086,1.223466 0.52435,0.446662 1.32057,0.446662 z"
         id="path1295" /><path
         d="m 375.30609,-61.59958 q 0.60202,0 1.0681,0.252461 0.13594,0.05826 0.0583,0.233041 l -0.4855,1.456508 q -0.0583,0.174781 -0.23304,0.11652 -0.31072,-0.13594 -0.73796,-0.13594 l -0.27189,0.01942 q -0.8739,0.03884 -1.53418,0.640863 -0.64087,0.582603 -0.75739,1.534188 l -0.69912,5.670669 q -0.0388,0.194201 -0.21362,0.194201 h -1.43709 q -0.1942,0 -0.15536,-0.194201 l 1.16521,-9.496429 q 0.0388,-0.194201 0.21362,-0.194201 h 1.41766 q 0.0971,0 0.13594,0.05826 0.0583,0.05826 0.0388,0.13594 l -0.13594,1.029266 q 0,0.05826 0.0194,0.07768 0.0388,0 0.0583,-0.03884 1.00985,-1.359407 2.48578,-1.359407 z"
         id="path1297" /><path
         d="m 380.60778,-51.462288 q -1.39825,0 -2.34984,-0.718544 -0.93216,-0.737964 -1.18462,-2.03911 -0.11652,-0.563183 -0.11652,-1.301147 0,-0.543763 0.0583,-1.068105 0.1942,-1.417668 0.62144,-2.330412 0.56318,-1.281727 1.68955,-2.000271 1.12636,-0.737963 2.56345,-0.737963 1.35941,0 2.27215,0.737963 0.91275,0.718544 1.18463,1.980851 0.11652,0.543762 0.11652,1.242886 0,0.524343 -0.0583,1.087525 -0.15536,1.359407 -0.62144,2.388673 -0.58261,1.301146 -1.68955,2.03911 -1.10695,0.718544 -2.48577,0.718544 z m 0.1942,-1.611869 q 0.7768,0 1.39824,-0.427242 0.62145,-0.446662 0.95159,-1.242886 0.31072,-0.835064 0.42724,-1.825489 0.0777,-0.854485 0.0777,-1.204047 0,-0.252461 -0.0388,-0.602023 -0.15536,-0.796224 -0.6797,-1.223466 -0.50492,-0.446662 -1.30115,-0.446662 -0.7768,0 -1.39825,0.446662 -0.62144,0.427242 -0.971,1.223466 -0.27188,0.660284 -0.42724,1.80607 -0.0583,0.524342 -0.0583,1.009845 0,0.466082 0.0583,0.815644 0.11652,0.776804 0.64086,1.223466 0.52434,0.446662 1.32057,0.446662 z"
         id="path1299" /><path
         d="m 388.84189,-51.617649 q -0.13594,0 -0.1942,-0.155361 l -1.53419,-9.515849 v -0.03884 q 0,-0.174781 0.1942,-0.174781 h 1.47593 q 0.0777,0 0.11652,0.05826 0.0583,0.03884 0.0583,0.11652 l 0.93216,7.049496 q 0,0.03884 0.0388,0.03884 0.0388,0 0.0583,-0.03884 l 2.67997,-7.049496 q 0.0777,-0.174781 0.23304,-0.174781 h 1.30115 q 0.15536,0 0.1942,0.174781 l 0.99042,7.030076 q 0.0194,0.03884 0.0388,0.03884 0.0388,0 0.0583,-0.03884 l 2.71882,-7.030076 q 0.0777,-0.174781 0.23304,-0.174781 l 1.45651,0.01942 q 0.23304,0 0.13594,0.213622 l -3.88402,9.496428 q -0.0971,0.155361 -0.23304,0.155361 h -1.47593 q -0.13594,0 -0.17478,-0.155361 l -1.04869,-6.563993 q -0.0194,-0.03884 -0.0583,-0.03884 -0.0194,0 -0.0388,0.03884 l -2.54403,6.544573 q -0.0777,0.174781 -0.23304,0.174781 z"
         id="path1301" /><path
         d="m 399.96964,-47.753049 q -0.0583,0 -0.0971,-0.05826 -0.0388,-0.05826 -0.0194,-0.13594 l 0.13594,-1.145786 q 0.0388,-0.194201 0.21362,-0.194201 h 0.0388 q 0.75738,-0.01942 1.20404,-0.194201 0.46609,-0.174781 0.79623,-0.660284 0.34956,-0.466082 0.73796,-1.417667 0.0194,-0.01942 0,-0.05826 0,-0.05826 0,-0.05826 l -1.96143,-9.61295 v -0.03884 q 0,-0.174781 0.17478,-0.174781 h 1.53419 q 0.15536,0 0.1942,0.155361 l 1.24289,7.321378 q 0,0.03884 0.0388,0.03884 0.0583,0 0.0777,-0.03884 l 2.99069,-7.321378 q 0.0971,-0.155361 0.25247,-0.155361 h 1.49534 q 0.21362,0 0.11652,0.213621 l -4.69966,10.350913 q -0.60202,1.320567 -1.10695,1.980851 -0.50492,0.660283 -1.24288,0.932164 -0.73797,0.271882 -2.00027,0.271882 z"
         id="path1303" /><path
         d="m 413.07819,-51.462288 q -1.41767,0 -2.34983,-0.737964 -0.91275,-0.757384 -1.14579,-2.03911 -0.0777,-0.446663 -0.0777,-1.068106 0,-0.660283 0.0777,-1.281726 0.17478,-1.398248 0.58261,-2.349832 0.50492,-1.242887 1.63128,-1.980851 1.12637,-0.737963 2.54404,-0.737963 1.41766,0 2.36925,0.737963 0.971,0.737964 1.14579,1.86433 0.0777,0.330142 0.0777,0.640863 -0.0194,0.174781 -0.19421,0.194201 l -1.43708,0.213621 h -0.0388 q -0.15536,0 -0.15536,-0.174781 l -0.0388,-0.310721 q -0.0583,-0.660284 -0.58261,-1.106946 -0.52434,-0.446662 -1.3594,-0.446662 -0.83507,0 -1.43709,0.446662 -0.60202,0.446662 -0.87391,1.184626 -0.23304,0.563183 -0.40782,1.84491 -0.0777,0.640863 -0.0777,1.204046 0,0.271881 0.0388,0.621443 0.0971,0.776804 0.58261,1.223466 0.4855,0.446662 1.32056,0.446662 0.81565,0 1.45651,-0.446662 0.66028,-0.466082 0.89332,-1.165206 l 0.0388,-0.0971 q 0,-0.05826 0.0194,-0.07768 0.0194,-0.07768 0.0777,-0.0971 0.0583,-0.03884 0.13595,-0.01942 l 1.37882,0.233041 q 0.15536,0.03884 0.13594,0.155361 0,0.05826 -0.0194,0.07768 -0.0194,0.0971 -0.13594,0.427242 -0.4855,1.184626 -1.63129,1.90317 -1.12636,0.718544 -2.54403,0.718544 z"
         id="path1305" /><path
         d="m 424.67201,-61.63842 q 1.39824,0 2.17505,0.776804 0.79622,0.757384 0.79622,2.07795 0,0.174781 -0.0388,0.563183 l -0.7768,6.408633 q -0.0194,0.07768 -0.0777,0.135941 -0.0583,0.05826 -0.13594,0.05826 h -1.43709 q -0.17478,0 -0.17478,-0.194201 l 0.75738,-6.039651 q 0.0194,-0.116521 0.0194,-0.349562 0,-0.815644 -0.46608,-1.320566 -0.46608,-0.504923 -1.28173,-0.504923 -0.91274,0 -1.55361,0.602023 -0.62144,0.602023 -0.73796,1.553608 l -0.73796,6.059071 q -0.0388,0.194201 -0.21362,0.194201 h -1.43709 q -0.1942,0 -0.15536,-0.194201 l 1.61187,-13.205668 q 0.0388,-0.194201 0.21362,-0.194201 h 1.43708 q 0.19421,0 0.15537,0.194201 l -0.54377,4.408363 q 0,0.03884 0.0194,0.05826 0.0388,0.01942 0.0583,-0.01942 0.93217,-1.068105 2.52462,-1.068105 z"
         id="path1307" /></g></g></svg>
